<?xml version="1.0" standalone="no"?><svg xmlns="http://www.w3.org/2000/svg" viewBox="0 0 1440 320"><path fill="#ffd700" fill-opacity="1.9" d="M0,32L17.1,69.3C34.3,107,69,181,103,224C137.1,267,171,277,206,277.3C240,277,274,267,309,229.3C342.9,192,377,128,411,106.7C445.7,85,480,107,514,96C548.6,85,583,43,617,48C651.4,53,686,107,720,144C754.3,181,789,203,823,213.3C857.1,224,891,224,926,202.7C960,181,994,139,1029,149.3C1062.9,160,1097,224,1131,234.7C1165.7,245,1200,203,1234,181.3C1268.6,160,1303,160,1337,144C1371.4,128,1406,96,1423,80L1440,64L1440,320L1422.9,320C1405.7,320,1371,320,1337,320C1302.9,320,1269,320,1234,320C1200,320,1166,320,1131,320C1097.1,320,1063,320,1029,320C994.3,320,960,320,926,320C891.4,320,857,320,823,320C788.6,320,754,320,720,320C685.7,320,651,320,617,320C582.9,320,549,320,514,320C480,320,446,320,411,320C377.1,320,343,320,309,320C274.3,320,240,320,206,320C171.4,320,137,320,103,320C68.6,320,34,320,17,320L0,320Z"></path></svg>